<svg width="60" height="60" viewBox="0 0 60 60" fill="none" xmlns="http://www.w3.org/2000/svg">
<path d="M49.332 20.3024C48.7096 20.0882 48.0647 19.8855 47.4006 19.6938C47.5097 19.2483 47.6099 18.8086 47.699 18.3764C49.1611 11.2793 48.2051 5.56178 44.9408 3.67933C41.8107 1.87432 36.6917 3.75634 31.5218 8.25557C31.0246 8.68822 30.5261 9.14628 30.0278 9.62634C29.6957 9.30872 29.3642 9.00178 29.0336 8.70819C23.6153 3.89731 18.1844 1.86994 14.9233 3.75783C11.7962 5.56808 10.8701 10.9431 12.1862 17.6691C12.3133 18.3187 12.4619 18.9822 12.6299 19.6567C11.8612 19.8749 11.1192 20.1075 10.4092 20.355C4.05687 22.5697 0 26.0406 0 29.6409C0 33.3594 4.35506 37.089 10.9715 39.3505C11.4936 39.5289 12.0354 39.6977 12.5938 39.8579C12.4125 40.5874 12.2549 41.3023 12.1226 41.9996C10.8677 48.6089 11.8477 53.8569 14.9664 55.6557C18.1878 57.5134 23.5942 55.6039 28.8586 51.0022C29.2747 50.6384 29.6923 50.2526 30.1106 49.8483C30.6529 50.3704 31.1942 50.8646 31.7327 51.3281C36.8319 55.7162 41.8683 57.4881 44.9841 55.6842C48.2023 53.8212 49.2482 48.1836 47.8904 41.3246C47.7867 40.8007 47.666 40.2655 47.5304 39.7209C47.9101 39.6086 48.2828 39.4927 48.6463 39.3723C55.5247 37.0933 60 33.409 60 29.6409C60 26.0276 55.8123 22.5332 49.332 20.3024ZM47.8402 36.9393C47.5121 37.0479 47.1754 37.1529 46.8324 37.2547C46.0731 34.8507 45.0482 32.2945 43.7941 29.6534C44.9909 27.0753 45.9761 24.5517 46.7142 22.1634C47.328 22.341 47.9237 22.5283 48.4977 22.726C54.05 24.6374 57.4368 27.4634 57.4368 29.6409C57.4368 31.9604 53.7792 34.9714 47.8402 36.9393ZM45.3759 41.8223C45.9763 44.8553 46.0621 47.5975 45.6643 49.7412C45.307 51.6674 44.5883 52.9517 43.6998 53.466C41.8089 54.5605 37.7653 53.1378 33.4043 49.3851C32.9044 48.9549 32.4008 48.4956 31.8957 48.0094C33.5863 46.1604 35.276 44.0109 36.9251 41.6236C39.8256 41.3662 42.566 40.9454 45.0511 40.3709C45.1735 40.8647 45.2822 41.3489 45.3759 41.8223ZM20.4554 53.2769C18.6079 53.9293 17.1366 53.948 16.2471 53.4352C14.3546 52.3436 13.5678 48.1299 14.641 42.4777C14.7639 41.8304 14.9102 41.1654 15.0789 40.4858C17.5367 41.0293 20.257 41.4204 23.1645 41.6561C24.8247 43.9921 26.5632 46.1393 28.3151 48.0194C27.9324 48.3889 27.5511 48.7407 27.172 49.0722C24.8441 51.107 22.5112 52.5508 20.4554 53.2769ZM11.8005 36.9251C8.8748 35.9251 6.45868 34.6255 4.80255 33.2073C3.31441 31.9328 2.56307 30.6676 2.56307 29.6409C2.56307 27.4561 5.82034 24.6694 11.2529 22.7753C11.9121 22.5455 12.6021 22.3289 13.3182 22.1255C14.069 24.5678 15.0539 27.1212 16.2424 29.7033C15.0385 32.3237 14.0396 34.9179 13.2814 37.3888C12.7709 37.2421 12.2764 37.0876 11.8005 36.9251ZM14.7017 17.1768C13.5741 11.4142 14.3229 7.067 16.2074 5.97616C18.2147 4.81408 22.6534 6.47096 27.3316 10.6249C27.6307 10.8904 27.9309 11.1683 28.2319 11.4558C26.4887 13.3277 24.7661 15.4588 23.1206 17.781C20.2988 18.0425 17.5976 18.4627 15.1141 19.0253C14.958 18.3972 14.8197 17.7801 14.7017 17.1768ZM40.5829 23.5676C39.9893 22.5421 39.3797 21.5409 38.7584 20.567C40.6728 20.809 42.5069 21.1302 44.2294 21.5233C43.7123 23.1807 43.0677 24.9135 42.309 26.6899C41.7648 25.6566 41.1891 24.6148 40.5829 23.5676ZM30.0286 13.2876C31.2109 14.5685 32.3949 15.9985 33.5594 17.5501C32.3859 17.4947 31.1979 17.4658 30 17.4658C28.8135 17.4658 27.6342 17.494 26.4679 17.5485C27.6336 16.0113 28.8279 14.5832 30.0286 13.2876ZM19.4067 23.5853C18.8136 24.6137 18.2487 25.6499 17.713 26.6879C16.9665 24.9177 16.328 23.177 15.8064 21.4962C17.5183 21.1131 19.3438 20.7999 21.246 20.5625C20.6159 21.5453 20.0014 22.5542 19.4067 23.5853ZM21.3008 38.9022C19.3355 38.683 17.4825 38.3859 15.771 38.0134C16.301 36.3025 16.9536 34.5247 17.7158 32.7163C18.2529 33.7537 18.8202 34.7903 19.4168 35.8209C20.0246 36.8708 20.6544 37.8993 21.3008 38.9022ZM30.0995 46.1749C28.8847 44.8642 27.673 43.4143 26.4895 41.8547C27.6383 41.8998 28.8096 41.9228 30 41.9228C31.223 41.9228 32.4319 41.8953 33.6219 41.8423C32.4535 43.43 31.2738 44.8821 30.0995 46.1749ZM42.3335 32.6242C43.1354 34.452 43.8115 36.2206 44.3483 37.9023C42.6086 38.2991 40.7303 38.6188 38.7513 38.8563C39.3742 37.8693 39.989 36.8508 40.5932 35.8032C41.2044 34.7434 41.7848 33.6819 42.3335 32.6242ZM38.3729 34.5227C37.435 36.149 36.4721 37.7014 35.4946 39.1668C33.7142 39.2941 31.8748 39.3597 30 39.3597C28.1328 39.3597 26.3166 39.3017 24.5677 39.1881C23.5507 37.7035 22.5669 36.1465 21.635 34.5367C20.7055 32.9313 19.8502 31.3123 19.0751 29.7025C19.85 28.0888 20.7032 26.468 21.6274 24.8655L21.6272 24.8658C22.5537 23.259 23.5289 21.7096 24.5365 20.2343C26.3209 20.0994 28.1507 20.029 29.9999 20.029C31.8575 20.029 33.6897 20.0999 35.4736 20.236C36.4657 21.7005 37.4343 23.2449 38.3645 24.852C39.3053 26.477 40.1695 28.087 40.9511 29.666C40.1719 31.2722 39.3096 32.8984 38.3729 34.5227ZM43.6605 5.8999C45.6697 7.05857 46.451 11.7315 45.1887 17.8591C45.1081 18.2501 45.0175 18.6483 44.919 19.0519C42.4297 18.4775 39.7266 18.0501 36.8966 17.7846C35.2479 15.4369 33.5394 13.3025 31.8246 11.4546C32.2856 11.0111 32.746 10.5882 33.2045 10.1891C37.6341 6.33415 41.7742 4.81215 43.6605 5.8999ZM30 24.2831C32.959 24.2831 35.3578 26.6819 35.3578 29.6409C35.3578 32.5999 32.959 34.9987 30 34.9987C27.041 34.9987 24.6422 32.5999 24.6422 29.6409C24.6422 26.6819 27.041 24.2831 30 24.2831Z" fill="#1ABCFE"/>
</svg>
