<svg width="60" height="60" viewBox="0 0 60 60" fill="none" xmlns="http://www.w3.org/2000/svg">
<path d="M30.0006 0C13.431 0 0 13.431 0 29.9995C0 46.5691 13.431 60 30.0006 60C46.5691 60 60 46.5691 60 29.9995C60 13.431 46.5691 0 30.0006 0ZM21.9218 23.8022C21.9218 23.8451 21.9034 23.8829 21.8707 23.9095L13.427 30.1887L21.8707 36.4709C21.9034 36.4934 21.9218 36.5343 21.9218 36.5752V40.4505C21.9218 40.4986 21.8982 40.5415 21.8595 40.564C21.8421 40.5732 21.8248 40.5792 21.8043 40.5792C21.7818 40.5792 21.7583 40.571 21.7389 40.5558L9.5782 31.511C9.54656 31.4875 9.52605 31.4476 9.52605 31.4058V28.9724C9.52605 28.9295 9.54644 28.8896 9.5782 28.8661L21.7389 19.8216C21.7583 19.8062 21.7818 19.7991 21.8043 19.7991C21.8246 19.7991 21.8421 19.8042 21.8595 19.8143C21.8984 19.8357 21.9218 19.8787 21.9218 19.9277V23.8022ZM27.9514 42.2348C27.9341 42.287 27.8912 42.3217 27.84 42.3217H24.4409C24.4021 42.3217 24.3673 42.3012 24.3448 42.2664C24.3233 42.2338 24.3171 42.1908 24.3294 42.152L32.0486 17.7632C32.0639 17.712 32.1088 17.6783 32.1589 17.6783H35.559C35.5958 17.6783 35.6326 17.6978 35.6541 17.7315C35.6755 17.7653 35.6817 17.8082 35.6694 17.848L27.9514 42.2348ZM50.472 31.4058C50.472 31.4476 50.4537 31.4876 50.4209 31.511L38.2602 40.5557C38.2407 40.5709 38.2184 40.5791 38.1948 40.5791C38.1754 40.5791 38.1571 40.573 38.1396 40.5639C38.1008 40.5414 38.0773 40.4985 38.0773 40.4504V36.576C38.0773 36.5341 38.0957 36.4932 38.1284 36.4707L46.5721 30.1886L38.1284 23.9094C38.0958 23.8849 38.0773 23.8461 38.0773 23.8032V19.9277C38.0773 19.8787 38.1008 19.8357 38.1396 19.8143C38.157 19.8042 38.1754 19.7991 38.1948 19.7991C38.2184 19.7991 38.2407 19.8062 38.2602 19.8216L50.4209 28.8661C50.4537 28.8896 50.472 28.9295 50.472 28.9724V31.4058Z" fill="#0057FF"/>
</svg>
