<svg width="49" height="30" viewBox="0 0 49 30" fill="none" xmlns="http://www.w3.org/2000/svg">
<path d="M10.032 23.692C8.752 23.692 7.568 23.484 6.48 23.068C5.408 22.636 4.472 22.036 3.672 21.268C2.888 20.484 2.272 19.572 1.824 18.532C1.376 17.492 1.152 16.348 1.152 15.1C1.152 13.852 1.376 12.708 1.824 11.668C2.272 10.628 2.896 9.724 3.696 8.956C4.496 8.172 5.432 7.572 6.504 7.156C7.592 6.724 8.776 6.508 10.056 6.508C11.352 6.508 12.544 6.732 13.632 7.18C14.736 7.612 15.672 8.26 16.44 9.124L14.88 10.636C14.24 9.964 13.52 9.468 12.72 9.148C11.92 8.812 11.064 8.644 10.152 8.644C9.208 8.644 8.328 8.804 7.512 9.124C6.712 9.444 6.016 9.892 5.424 10.468C4.832 11.044 4.368 11.732 4.032 12.532C3.712 13.316 3.552 14.172 3.552 15.1C3.552 16.028 3.712 16.892 4.032 17.692C4.368 18.476 4.832 19.156 5.424 19.732C6.016 20.308 6.712 20.756 7.512 21.076C8.328 21.396 9.208 21.556 10.152 21.556C11.064 21.556 11.92 21.396 12.72 21.076C13.52 20.74 14.24 20.228 14.88 19.54L16.44 21.052C15.672 21.916 14.736 22.572 13.632 23.02C12.544 23.468 11.344 23.692 10.032 23.692ZM23.4041 23.5V17.068L23.9561 18.556L16.7321 6.7H19.3001L25.3721 16.708H23.9801L30.0761 6.7H32.4521L25.2521 18.556L25.7801 17.068V23.5H23.4041ZM31.1479 23.5L38.7559 6.7H41.1319L48.7639 23.5H46.2439L39.4519 8.044H40.4119L33.6199 23.5H31.1479ZM34.3879 19.3L35.0359 17.38H44.4919L45.1879 19.3H34.3879Z" fill="#171010"/>
</svg>
