<svg width="54" height="30" viewBox="0 0 54 30" fill="none" xmlns="http://www.w3.org/2000/svg">
<path d="M10.032 23.692C8.752 23.692 7.568 23.484 6.48 23.068C5.408 22.636 4.472 22.036 3.672 21.268C2.888 20.484 2.272 19.572 1.824 18.532C1.376 17.492 1.152 16.348 1.152 15.1C1.152 13.852 1.376 12.708 1.824 11.668C2.272 10.628 2.896 9.724 3.696 8.956C4.496 8.172 5.432 7.572 6.504 7.156C7.592 6.724 8.776 6.508 10.056 6.508C11.352 6.508 12.544 6.732 13.632 7.18C14.736 7.612 15.672 8.26 16.44 9.124L14.88 10.636C14.24 9.964 13.52 9.468 12.72 9.148C11.92 8.812 11.064 8.644 10.152 8.644C9.208 8.644 8.328 8.804 7.512 9.124C6.712 9.444 6.016 9.892 5.424 10.468C4.832 11.044 4.368 11.732 4.032 12.532C3.712 13.316 3.552 14.172 3.552 15.1C3.552 16.028 3.712 16.892 4.032 17.692C4.368 18.476 4.832 19.156 5.424 19.732C6.016 20.308 6.712 20.756 7.512 21.076C8.328 21.396 9.208 21.556 10.152 21.556C11.064 21.556 11.92 21.396 12.72 21.076C13.52 20.74 14.24 20.228 14.88 19.54L16.44 21.052C15.672 21.916 14.736 22.572 13.632 23.02C12.544 23.468 11.344 23.692 10.032 23.692ZM23.4041 23.5V17.068L23.9561 18.556L16.7321 6.7H19.3001L25.3721 16.708H23.9801L30.0761 6.7H32.4521L25.2521 18.556L25.7801 17.068V23.5H23.4041ZM31.1479 23.5L38.7559 6.7H41.1319L48.7639 23.5H46.2439L39.4519 8.044H40.4119L33.6199 23.5H31.1479ZM34.3879 19.3L35.0359 17.38H44.4919L45.1879 19.3H34.3879Z" fill="#535146"/>
<mask id="path-2-inside-1_298_75" fill="white">
<path d="M50.823 6V9.18051L48.177 7.59025L48 7.90975L50.6461 9.5L48 11.0903L48.177 11.4097L50.823 9.81949V13H51.177V9.81949L53.823 11.4097L54 11.0903L51.3539 9.5L54 7.90975L53.823 7.59025L51.177 9.18051V6H50.823Z"/>
</mask>
<path d="M50.823 6V9.18051L48.177 7.59025L48 7.90975L50.6461 9.5L48 11.0903L48.177 11.4097L50.823 9.81949V13H51.177V9.81949L53.823 11.4097L54 11.0903L51.3539 9.5L54 7.90975L53.823 7.59025L51.177 9.18051V6H50.823Z" fill="#535146"/>
<path d="M50.823 6V-4H40.823V6H50.823ZM50.823 9.18051L45.6719 17.7517L60.823 26.8573V9.18051H50.823ZM48.177 7.59025L53.3281 -0.980949L44.4486 -6.31738L39.4292 2.74504L48.177 7.59025ZM48 7.90975L39.2522 3.06453L34.5752 11.5086L42.8488 16.4809L48 7.90975ZM50.6461 9.5L55.7972 18.0712L70.0592 9.5L55.7972 0.928796L50.6461 9.5ZM48 11.0903L42.8488 2.51905L34.5752 7.49137L39.2522 15.9355L48 11.0903ZM48.177 11.4097L39.4292 16.255L44.4486 25.3174L53.3281 19.9809L48.177 11.4097ZM50.823 9.81949H60.823V-7.85732L45.6719 1.24829L50.823 9.81949ZM50.823 13H40.823V23H50.823V13ZM51.177 13V23H61.177V13H51.177ZM51.177 9.81949L56.3281 1.24829L41.177 -7.85732V9.81949H51.177ZM53.823 11.4097L48.6719 19.9809L57.5514 25.3174L62.5708 16.255L53.823 11.4097ZM54 11.0903L62.7478 15.9355L67.4248 7.49137L59.1512 2.51905L54 11.0903ZM51.3539 9.5L46.2028 0.928796L31.9408 9.5L46.2028 18.0712L51.3539 9.5ZM54 7.90975L59.1512 16.4809L67.4248 11.5086L62.7478 3.06453L54 7.90975ZM53.823 7.59025L62.5708 2.74504L57.5514 -6.31738L48.6719 -0.980949L53.823 7.59025ZM51.177 9.18051H41.177V26.8573L56.3281 17.7517L51.177 9.18051ZM51.177 6H61.177V-4H51.177V6ZM40.823 6V9.18051H60.823V6H40.823ZM55.9742 0.609306L53.3281 -0.980949L43.0258 16.1615L45.6719 17.7517L55.9742 0.609306ZM39.4292 2.74504L39.2522 3.06453L56.7478 12.755L56.9248 12.4355L39.4292 2.74504ZM42.8488 16.4809L45.4949 18.0712L55.7972 0.928796L53.1512 -0.661459L42.8488 16.4809ZM45.4949 0.928796L42.8488 2.51905L53.1512 19.6615L55.7972 18.0712L45.4949 0.928796ZM39.2522 15.9355L39.4292 16.255L56.9248 6.56453L56.7478 6.24504L39.2522 15.9355ZM53.3281 19.9809L55.9742 18.3907L45.6719 1.24829L43.0258 2.83854L53.3281 19.9809ZM40.823 9.81949V13H60.823V9.81949H40.823ZM50.823 23H51.177V3H50.823V23ZM61.177 13V9.81949H41.177V13H61.177ZM46.0258 18.3907L48.6719 19.9809L58.9742 2.83854L56.3281 1.24829L46.0258 18.3907ZM62.5708 16.255L62.7478 15.9355L45.2522 6.24504L45.0752 6.56453L62.5708 16.255ZM59.1512 2.51905L56.5051 0.928796L46.2028 18.0712L48.8488 19.6615L59.1512 2.51905ZM56.5051 18.0712L59.1512 16.4809L48.8488 -0.661459L46.2028 0.928796L56.5051 18.0712ZM62.7478 3.06453L62.5708 2.74504L45.0752 12.4355L45.2522 12.755L62.7478 3.06453ZM48.6719 -0.980949L46.0258 0.609306L56.3281 17.7517L58.9742 16.1615L48.6719 -0.980949ZM61.177 9.18051V6H41.177V9.18051H61.177ZM51.177 -4H50.823V16H51.177V-4Z" fill="#535146" mask="url(#path-2-inside-1_298_75)"/>
</svg>
