<svg width="43" height="34" viewBox="0 0 43 34" fill="none" xmlns="http://www.w3.org/2000/svg">
<path d="M4.34766 32.0781C3.36328 32.0781 2.48828 32.0508 1.80469 31.9961V28.1406C2.51562 28.1953 3.17188 28.1953 3.74609 28.1953C4.48438 28.1953 5.00391 28.1133 5.30469 27.4023L5.41406 27.1289L0.191406 11.6523H5.57812L8.06641 22.0156H8.23047L10.7734 11.6523H16.1875L10.7188 27.7852C9.89844 30.2461 8.17578 32.0781 4.34766 32.0781ZM16.6797 22.3984C16.6797 19.1172 19.1133 17.8594 22.1484 17.668L25.6211 17.5312V16.3281C25.6211 15.5078 24.9375 15.043 23.9258 15.043C22.8594 15.043 22.1758 15.5078 22.0391 16.4375H17.2539C17.4453 13.7305 19.6328 11.4609 24.0078 11.4609C28.1367 11.4609 30.7891 13.4844 30.7891 16.3555V26.5H25.9492V24.4219H25.8398C24.9648 26.0352 23.4883 26.7461 21.5195 26.7461C18.6758 26.7461 16.6797 25.3516 16.6797 22.3984ZM21.5469 22.0977C21.5469 22.9727 22.2305 23.4375 23.1875 23.4375C24.4727 23.4375 25.6758 22.6172 25.6484 21.2227V20.4297C25.1289 20.4434 23.7617 20.498 23.0781 20.5664C22.1484 20.6758 21.5469 21.3047 21.5469 22.0977Z" fill="black"/>
<path fill-rule="evenodd" clip-rule="evenodd" d="M38 4C37.749 4 37.5455 4.20351 37.5455 4.45455V7.90264L35.1073 5.46447C34.9298 5.28695 34.642 5.28695 34.4645 5.46447C34.2869 5.64198 34.2869 5.92978 34.4645 6.10729L36.9026 8.54545H33.4545C33.2035 8.54545 33 8.74896 33 9C33 9.25104 33.2035 9.45455 33.4545 9.45455H36.9026L34.4645 11.8927C34.2869 12.0702 34.2869 12.358 34.4645 12.5355C34.642 12.7131 34.9298 12.7131 35.1073 12.5355L37.5455 10.0974V13.5455C37.5455 13.7965 37.749 14 38 14C38.251 14 38.4545 13.7965 38.4545 13.5455V10.0974L40.8927 12.5355C41.0702 12.7131 41.358 12.7131 41.5355 12.5355C41.713 12.358 41.713 12.0702 41.5355 11.8927L39.0974 9.45455H42.5455C42.7965 9.45455 43 9.25104 43 9C43 8.74896 42.7965 8.54545 42.5455 8.54545H39.0974L41.5355 6.10729C41.713 5.92978 41.713 5.64198 41.5355 5.46447C41.358 5.28695 41.0702 5.28695 40.8927 5.46447L38.4545 7.90263V4.45455C38.4545 4.20351 38.251 4 38 4Z" fill="#0057FF"/>
</svg>
