<svg width="100" height="100" viewBox="0 0 100 100" fill="none" xmlns="http://www.w3.org/2000/svg">
<path d="M100 50C100 77.6142 77.6142 100 50 100C22.3858 100 0 77.6142 0 50C0 22.3858 22.3858 0 50 0C77.6142 0 100 22.3858 100 50Z" fill="black"/>
<path d="M48.4382 6.01562L50.2195 12.0625H50.2898L52.071 6.01562H54.5906L51.7781 14.5H48.7429L45.9187 6.01562H48.4382Z" fill="#F5F5F5"/>
<path d="M56.0969 14.8851L57.3012 8.63686L59.476 9.05602L58.2718 15.3043L56.0969 14.8851ZM58.5137 8.16642C57.9153 8.0511 57.5185 7.50918 57.625 6.95684C57.7314 6.40451 58.3012 6.04888 58.8996 6.16421C59.498 6.27953 59.8948 6.82145 59.7883 7.37379C59.6818 7.92612 59.1121 8.28175 58.5137 8.16642Z" fill="#F5F5F5"/>
<path d="M62.6454 17.0467C60.7633 16.2932 60.0674 14.6892 60.8296 12.7854C61.5613 10.9576 63.2132 10.2052 65.0409 10.9369C66.7925 11.6381 67.5036 13.2356 66.7458 15.1286L66.5498 15.6182L62.6768 14.0676L62.6463 14.1438C62.4024 14.753 62.6198 15.345 63.2726 15.6063C63.7186 15.7849 64.156 15.7328 64.4216 15.4478L66.3037 16.2013C65.6092 17.337 64.2556 17.6913 62.6454 17.0467ZM63.1384 12.9144L65.1076 13.7028C65.3101 13.1653 65.0448 12.6299 64.5008 12.4121C63.9514 12.1922 63.366 12.3933 63.1384 12.9144Z" fill="#F5F5F5"/>
<path d="M66.9561 18.179L69.0458 11.9579L70.909 13.1553L69.421 16.8796L69.4703 16.9113L72.3089 14.055L74.1229 15.2207L72.7426 18.9724L72.7821 18.9978L75.5129 16.1141L77.3761 17.3115L72.5853 21.7967L70.5742 20.5042L71.6834 17.0659L71.6341 17.0342L68.9672 19.4715L66.9561 18.179Z" fill="#F5F5F5"/>
<path d="M79.6772 29.3868C78.4876 27.7163 78.8525 25.9459 80.4467 24.8107C82.0408 23.6755 83.8333 23.9097 85.0228 25.5802C86.2124 27.2507 85.8407 29.0116 84.2465 30.1468C82.6524 31.282 80.8667 31.0573 79.6772 29.3868ZM81.0204 28.4447C81.3807 28.9506 82.1232 28.8822 82.9441 28.2976C83.7746 27.7063 84.0726 27.0337 83.7123 26.5278C83.3384 26.0028 82.5986 26.0548 81.7682 26.6462C80.9472 27.2308 80.6465 27.9197 81.0204 28.4447Z" fill="#F5F5F5"/>
<path d="M86.1869 32.9704L82.9143 34.4649L81.9942 32.4502L87.7825 29.8068L88.6539 31.7149L87.5666 32.2114L87.5958 32.2754C88.4375 32.2002 89.1764 32.6615 89.5658 33.5143C90.1257 34.7402 89.5954 35.9486 88.3113 36.5221L84.623 38.2064L83.703 36.1918L86.9755 34.6972C87.5773 34.4353 87.783 33.9548 87.5348 33.4112C87.2914 32.8782 86.7838 32.6977 86.1869 32.9704Z" fill="#F5F5F5"/>
<path d="M92.3848 50.108C92.9862 49.9268 93.3134 49.4068 93.2777 48.6576C93.2214 47.4754 92.2989 46.8271 90.7889 46.899C89.2672 46.9715 88.3965 47.6583 88.4545 48.8756C88.505 49.935 89.0281 50.4497 89.8191 50.4297L89.7444 48.8611L91.3363 48.7853L91.5136 52.5076L90.3548 52.5628C88.0488 52.6727 86.6157 51.1571 86.5103 48.9448C86.3932 46.4866 87.9757 44.7336 90.6562 44.6059C93.4421 44.4732 95.1099 46.2357 95.2186 48.5182C95.3134 50.5082 94.1808 52.099 92.4924 52.3671L92.3848 50.108Z" fill="#F5F5F5"/>
<path d="M86.494 54.2352L92.7926 55.1408L92.4773 57.3331L86.1788 56.4275L86.494 54.2352ZM93.3202 56.3296C93.4069 55.7264 93.9293 55.3042 94.4861 55.3843C95.0429 55.4644 95.4252 56.0166 95.3385 56.6197C95.2517 57.2229 94.7293 57.6451 94.1725 57.565C93.6158 57.4849 93.2334 56.9327 93.3202 56.3296Z" fill="#F5F5F5"/>
<path d="M90.0937 63.0906L88.5766 62.5655L88.9407 61.5134L86.3715 60.6242C86.0835 60.5246 85.923 60.6302 85.8122 60.9143C85.7475 61.0655 85.6623 61.3833 85.604 61.6235L84.0425 61.0831C84.0783 60.8722 84.1451 60.5357 84.31 60.0595C84.8159 58.5977 85.6379 58.0142 86.8855 58.4584L89.6651 59.4204L89.9334 58.6452L91.4506 59.1703L91.1823 59.9455L92.6219 60.4438L91.8975 62.5368L90.4579 62.0385L90.0937 63.0906Z" fill="#F5F5F5"/>
<path d="M83.8007 63.1002L91.1484 67.3424L90.0351 69.2706L87.1427 67.6007L85.5782 70.3104L88.4706 71.9804L87.3515 73.9188L80.0038 69.6766L81.123 67.7382L84.0153 69.4081L85.5798 66.6984L82.6874 65.0285L83.8007 63.1002Z" fill="#F5F5F5"/>
<path d="M78.5013 75.431L81.2114 77.7793L79.7609 79.4532L74.9519 75.2861L76.3256 73.7008L77.2378 74.4912L77.2838 74.4381C76.8569 73.696 76.9696 72.8323 77.5912 72.1149C78.4584 71.1142 79.7779 71.0945 80.8407 72.0154L83.905 74.6707L82.4546 76.3446L79.7356 73.9886C79.2485 73.5665 78.7249 73.5624 78.3335 74.0141C77.9575 74.4481 77.9888 75.0025 78.5013 75.431Z" fill="#F5F5F5"/>
<path d="M73.6075 76.6802L78.8522 83.3494L77.1112 84.7185L75.1191 82.1854L75.0914 82.2071C75.2892 82.8566 75.1691 83.6518 74.4137 84.2458C73.4096 85.0354 71.8504 85.0242 70.4306 83.2187C69.0759 81.4962 69.3194 79.948 70.3972 79.1005C71.1157 78.5354 71.8897 78.5529 72.4836 78.8909L72.5296 78.8547L71.8849 78.0349L73.6075 76.6802ZM73.8829 80.5187C73.2889 79.7633 72.599 79.5306 72.074 79.9435C71.5581 80.3492 71.6328 81.0508 72.2341 81.8154C72.8281 82.5707 73.485 82.7995 74.0009 82.3938C74.5259 81.9809 74.4769 81.274 73.8829 80.5187Z" fill="#F5F5F5"/>
<path d="M61.717 87.4604C62.3242 87.2821 62.9609 87.6204 63.1279 88.2308C63.3142 88.8235 62.9614 89.4522 62.3542 89.6305C61.7808 89.7989 61.1216 89.4673 60.9466 88.8713C60.7683 88.2642 61.1436 87.6288 61.717 87.4604Z" fill="#F5F5F5"/>
<path d="M48.645 94.9942L47.4466 88.8053L47.3766 88.7987L45.0286 94.6488L42.5205 94.4093L46.1267 86.2307L49.1482 86.5192L51.1531 95.2336L48.645 94.9942Z" fill="#F5F5F5"/>
<path d="M41.8641 85.4368L40.0713 91.5423L37.9462 90.9183L39.7389 84.8128L41.8641 85.4368ZM38.8196 91.8954C39.4043 92.0671 39.7478 92.6442 39.5893 93.184C39.4308 93.7237 38.8298 94.0235 38.2451 93.8518C37.6604 93.6802 37.3169 93.103 37.4754 92.5633C37.6339 92.0236 38.2349 91.7237 38.8196 91.8954Z" fill="#F5F5F5"/>
<path d="M35.5552 83.5675C37.3572 84.4965 37.8975 86.1594 36.9577 87.9822C36.0556 89.7321 34.3397 90.3241 32.5898 89.422C30.9128 88.5574 30.3567 86.8996 31.2911 85.0872L31.5327 84.6185L35.2409 86.5301L35.2784 86.4572C35.5792 85.8739 35.419 85.264 34.794 84.9418C34.3669 84.7216 33.9266 84.7319 33.6351 84.9904L31.8331 84.0614C32.6325 82.9968 34.0137 82.7728 35.5552 83.5675ZM34.6716 87.6342L32.7863 86.6623C32.5336 87.1781 32.7469 87.7363 33.2677 88.0048C33.7937 88.2759 34.3956 88.1314 34.6716 87.6342Z" fill="#F5F5F5"/>
<path d="M31.3671 81.1257L28.6956 87.12L26.9546 85.7509L28.7899 82.185L28.7438 82.1487L25.6466 84.7222L23.9517 83.3893L25.6823 79.7858L25.6454 79.7569L22.6528 82.3679L20.9118 80.9988L26.1073 76.9894L27.9865 78.4672L26.5555 81.7845L26.6015 81.8207L29.488 79.6479L31.3671 81.1257Z" fill="#F5F5F5"/>
<path d="M19.769 68.7594C20.7944 70.5354 20.2629 72.2632 18.568 73.2417C16.8732 74.2202 15.1111 73.8167 14.0858 72.0407C13.0604 70.2646 13.5978 68.5471 15.2926 67.5685C16.9875 66.59 18.7437 66.9834 19.769 68.7594ZM18.3424 69.5696C18.0318 69.0317 17.2861 69.0292 16.4133 69.5331C15.5304 70.0429 15.1699 70.684 15.4804 71.2219C15.8027 71.7801 16.5441 71.7986 17.427 71.2888C18.2998 70.7849 18.6646 70.1278 18.3424 69.5696Z" fill="#F5F5F5"/>
<path d="M13.6295 64.5733L17.0293 63.3967L17.7537 65.4897L11.7404 67.5709L11.0543 65.5886L12.1838 65.1977L12.1609 65.1312C11.3158 65.1261 10.6241 64.5966 10.3175 63.7107C9.87674 62.4372 10.5195 61.2846 11.8523 60.8358L15.6839 59.5096L16.4083 61.6026L13.0085 62.7793C12.3846 62.9829 12.1341 63.4416 12.3296 64.0064C12.5212 64.5601 13.0093 64.788 13.6295 64.5733Z" fill="#F5F5F5"/>
<path d="M9.08863 46.9241C8.4727 47.0473 8.09755 47.5339 8.06187 48.283C8.00555 49.4653 8.86227 50.1983 10.3723 50.2702C11.894 50.3427 12.826 49.7418 12.884 48.5245C12.9344 47.4651 12.4626 46.903 11.6733 46.8478L11.5986 48.4163L10.0067 48.3405L10.184 44.6181L11.3428 44.6733C13.6488 44.7832 14.9313 46.4281 14.826 48.6404C14.7089 51.0986 12.967 52.6933 10.2864 52.5656C7.50049 52.4329 6.0078 50.5199 6.11653 48.2373C6.21132 46.2474 7.49003 44.7714 9.19624 44.6649L9.08863 46.9241Z" fill="#F5F5F5"/>
<path d="M15.3451 43.3755L9.16114 41.8753L9.68331 39.7229L15.8672 41.2231L15.3451 43.3755ZM8.74893 40.6418C8.60526 41.234 8.04508 41.6046 7.49843 41.4719C6.95179 41.3393 6.62368 40.7533 6.76734 40.1611C6.91101 39.5689 7.47119 39.1983 8.01784 39.3309C8.56448 39.4635 8.89259 40.0496 8.74893 40.6418Z" fill="#F5F5F5"/>
<path d="M11.8886 33.2316L13.349 33.8986L12.8865 34.9112L15.3595 36.0406C15.6367 36.1672 15.8066 36.0773 15.9438 35.805C16.0226 35.6607 16.1376 35.3525 16.2185 35.1189L17.7215 35.8053C17.6659 36.0118 17.5674 36.3404 17.358 36.7987C16.7154 38.2058 15.8417 38.7086 14.642 38.1478L11.9664 36.9259L11.6256 37.6721L10.1652 37.0052L10.506 36.259L9.12025 35.6261L10.0403 33.6114L11.4261 34.2443L11.8886 33.2316Z" fill="#F5F5F5"/>
<path d="M18.059 34.8158L11.1478 29.8944L12.4393 28.0806L15.1599 30.0179L16.9748 27.4692L14.2543 25.5319L15.5526 23.7087L22.4638 28.6301L21.1655 30.4533L18.4449 28.516L16.63 31.0648L19.3505 33.0021L18.059 34.8158Z" fill="#F5F5F5"/>
<path d="M24.416 22.9449L21.9414 20.3496L23.5444 18.8212L27.9355 23.4265L26.4174 24.8741L25.5844 24.0005L25.5335 24.049C25.888 24.8283 25.6937 25.6775 25.0067 26.3325C24.0483 27.2463 22.733 27.1404 21.7625 26.1226L18.9645 23.1881L20.5674 21.6597L23.0501 24.2635C23.4949 24.7299 24.0158 24.7838 24.4483 24.3713C24.8639 23.9751 24.8854 23.4202 24.416 22.9449Z" fill="#F5F5F5"/>
<path d="M28.3159 22.067L23.7289 14.9295L25.5921 13.7321L27.3344 16.4431L27.364 16.4241C27.2289 15.7587 27.424 14.9786 28.2324 14.4591C29.307 13.7685 30.8581 13.9278 32.0999 15.8601C33.2847 17.7036 32.8951 19.2216 31.7417 19.9629C30.9727 20.4571 30.2038 20.3661 29.6448 19.9732L29.5955 20.0048L30.1594 20.8822L28.3159 22.067ZM28.4065 18.2197C28.9261 19.0281 29.5907 19.3254 30.1526 18.9642C30.7047 18.6094 30.697 17.9039 30.1712 17.0857C29.6517 16.2773 29.0194 15.9871 28.4673 16.3419C27.9054 16.703 27.887 17.4114 28.4065 18.2197Z" fill="#F5F5F5"/>
<path d="M39.1681 13.656C38.5468 13.7757 37.9451 13.3785 37.8368 12.7549C37.7078 12.1473 38.1187 11.5549 38.7401 11.4351C39.327 11.322 39.9516 11.7148 40.0692 12.3247C40.189 12.9461 39.755 13.5429 39.1681 13.656Z" fill="#F5F5F5"/>
<path d="M60.5 50.5C60.5 56.0228 56.0228 60.5 50.5 60.5C44.9772 60.5 40.5 56.0228 40.5 50.5C40.5 44.9772 44.9772 40.5 50.5 40.5C56.0228 40.5 60.5 44.9772 60.5 50.5Z" fill="#F5F5F5"/>
</svg>
