<svg width="706" height="780" viewBox="0 0 706 780" fill="none" xmlns="http://www.w3.org/2000/svg">
<path d="M333.062 5H328.062V10V346.652L36.4999 178.326L32.1673 175.825L29.6684 180.159L9.66842 214.846L7.17234 219.175L11.5001 221.674L303.062 390L11.5001 558.326L7.17234 560.825L9.66842 565.154L29.6684 599.841L32.1673 604.175L36.4999 601.674L328.062 433.348V770V775H333.062H373.062H378.062V770V433.348L669.625 601.674L673.958 604.175L676.457 599.841L696.457 565.154L698.953 560.825L694.625 558.326L403.063 390L694.625 221.674L698.953 219.175L696.457 214.846L676.457 180.159L673.958 175.825L669.625 178.326L378.062 346.652V10V5H373.062H333.062Z" fill="#171010" stroke="black" stroke-width="10"/>
</svg>
