<svg width="734" height="734" viewBox="0 0 734 734" fill="none" xmlns="http://www.w3.org/2000/svg">
<path fill-rule="evenodd" clip-rule="evenodd" d="M367 0.333347C385.409 0.333347 400.333 15.2572 400.333 33.6667V286.527L579.133 107.727C592.151 94.71 613.256 94.71 626.273 107.727C639.291 120.745 639.291 141.85 626.273 154.868L447.475 333.667H700.333C718.743 333.667 733.667 348.591 733.667 367C733.667 385.409 718.743 400.333 700.333 400.333H447.474L626.273 579.133C639.291 592.151 639.291 613.256 626.273 626.274C613.256 639.291 592.151 639.291 579.133 626.274L400.333 447.474V700.333C400.333 718.743 385.409 733.667 367 733.667C348.59 733.667 333.667 718.743 333.667 700.333V447.475L154.868 626.274C141.85 639.291 120.745 639.291 107.727 626.274C94.7099 613.256 94.7099 592.151 107.727 579.133L286.527 400.333H33.6666C15.2571 400.333 0.333252 385.409 0.333252 367C0.333252 348.591 15.2571 333.667 33.6666 333.667H286.526L107.727 154.868C94.7099 141.85 94.7099 120.745 107.727 107.727C120.745 94.71 141.85 94.71 154.868 107.727L333.667 286.526V33.6667C333.667 15.2572 348.59 0.333347 367 0.333347Z" fill="#0057FF"/>
</svg>
