<svg width="38" height="34" viewBox="0 0 38 34" fill="none" xmlns="http://www.w3.org/2000/svg">
<path d="M4.34766 32.0781C3.36328 32.0781 2.48828 32.0508 1.80469 31.9961V28.1406C2.51562 28.1953 3.17188 28.1953 3.74609 28.1953C4.48438 28.1953 5.00391 28.1133 5.30469 27.4023L5.41406 27.1289L0.191406 11.6523H5.57812L8.06641 22.0156H8.23047L10.7734 11.6523H16.1875L10.7188 27.7852C9.89844 30.2461 8.17578 32.0781 4.34766 32.0781ZM16.6797 22.3984C16.6797 19.1172 19.1133 17.8594 22.1484 17.668L25.6211 17.5312V16.3281C25.6211 15.5078 24.9375 15.043 23.9258 15.043C22.8594 15.043 22.1758 15.5078 22.0391 16.4375H17.2539C17.4453 13.7305 19.6328 11.4609 24.0078 11.4609C28.1367 11.4609 30.7891 13.4844 30.7891 16.3555V26.5H25.9492V24.4219H25.8398C24.9648 26.0352 23.4883 26.7461 21.5195 26.7461C18.6758 26.7461 16.6797 25.3516 16.6797 22.3984ZM21.5469 22.0977C21.5469 22.9727 22.2305 23.4375 23.1875 23.4375C24.4727 23.4375 25.6758 22.6172 25.6484 21.2227V20.4297C25.1289 20.4434 23.7617 20.498 23.0781 20.5664C22.1484 20.6758 21.5469 21.3047 21.5469 22.0977Z" fill="black"/>
<circle cx="35" cy="8.5" r="3" fill="#8A76D2"/>
</svg>
